# xmcd
#
# Track frame offsets: 
#        150
#        33420
#        63115
#        84343
#        112457
#        142489
#        171473
#        189342
#        208019
#        233442
#        248726
#
# Disc length: 3647 seconds
#
# Revision: 0
# Processed by: cddbd v1.5.2PL0 Copyright (c) Steve Scherf et al.
# Submitted via: ExactAudioCopyFreeDBPlugin 1.0
#
DISCID=9c0e3d0b
DTITLE=Free Spirit Brass Band - New Verses Please
DYEAR=2013
DGENRE=New Orleans Brass Band
TTITLE0=Money Worth
TTITLE1=I Got You
TTITLE2=Make Money
TTITLE3=Free Spirit Funk
TTITLE4=Logan Song
TTITLE5=Move You Lose
TTITLE6=Feeling Free
TTITLE7=We Are One
TTITLE8=Nola Music
TTITLE9=All Blues
TTITLE10=St. James Infirmary
EXTD=
EXTT0=
EXTT1=
EXTT2=
EXTT3=
EXTT4=
EXTT5=
EXTT6=
EXTT7=
EXTT8=
EXTT9=
EXTT10=
PLAYORDER=
